<svg xmlns="http://www.w3.org/2000/svg" xmlns:xlink="http://www.w3.org/1999/xlink" width="500" zoomAndPan="magnify" viewBox="0 0 375 374.999991" height="500" preserveAspectRatio="xMidYMid meet" version="1.0"><defs><g/><clipPath id="7600a00536"><path d="M 121.699219 147.78125 L 252.949219 147.78125 L 252.949219 187.53125 L 121.699219 187.53125 Z M 121.699219 147.78125 " clip-rule="nonzero"/></clipPath></defs><rect x="-37.5" width="450" fill="#ffffff" y="-37.499999" height="449.999989" fill-opacity="1"/><rect x="-37.5" width="450" fill="#ffffff" y="-37.499999" height="449.999989" fill-opacity="1"/><rect x="-37.5" width="450" fill="#ffffff" y="-37.499999" height="449.999989" fill-opacity="1"/><g fill="#000000" fill-opacity="1"><g transform="translate(138.420435, 204.146203)"><g><path d="M 39.078125 -5.609375 C 39.128906 -5.578125 39.171875 -5.523438 39.203125 -5.453125 C 39.234375 -5.378906 39.25 -5.3125 39.25 -5.25 C 39.269531 -5.082031 39.175781 -4.96875 38.96875 -4.90625 C 38.769531 -4.84375 38.515625 -4.800781 38.203125 -4.78125 C 37.890625 -4.757812 37.578125 -4.75 37.265625 -4.75 C 36.878906 -4.75 36.585938 -4.734375 36.390625 -4.703125 C 36.203125 -4.671875 36.085938 -4.585938 36.046875 -4.453125 C 36.015625 -4.316406 36.015625 -4.082031 36.046875 -3.75 C 36.054688 -3.570312 36.078125 -3.363281 36.109375 -3.125 C 36.304688 0.414062 36.734375 3.925781 37.390625 7.40625 C 37.398438 7.476562 37.421875 7.539062 37.453125 7.59375 C 37.472656 7.71875 37.484375 7.84375 37.484375 7.96875 C 37.460938 8.195312 37.328125 8.359375 37.078125 8.453125 C 36.835938 8.554688 36.582031 8.554688 36.3125 8.453125 C 36.039062 8.347656 35.863281 8.097656 35.78125 7.703125 C 35.6875 7.179688 35.585938 6.660156 35.484375 6.140625 C 35.328125 5.421875 35.1875 4.695312 35.0625 3.96875 C 34.644531 1.488281 34.347656 -0.992188 34.171875 -3.484375 C 34.148438 -3.878906 34.082031 -4.125 33.96875 -4.21875 C 33.851562 -4.3125 33.59375 -4.332031 33.1875 -4.28125 C 32.238281 -4.207031 31.300781 -4.113281 30.375 -4 C 27.800781 -3.644531 25.21875 -3.359375 22.625 -3.140625 C 22.613281 -3.140625 22.597656 -3.140625 22.578125 -3.140625 C 22.546875 -3.140625 22.515625 -3.140625 22.484375 -3.140625 C 21.617188 -3.160156 21.039062 -2.726562 20.75 -1.84375 C 19.863281 0.5625 18.804688 2.882812 17.578125 5.125 C 16.191406 7.664062 14.503906 9.992188 12.515625 12.109375 C 11.128906 13.523438 9.550781 14.679688 7.78125 15.578125 C 6.007812 16.472656 4.1875 17.097656 2.3125 17.453125 C 0.445312 17.816406 -1.335938 17.910156 -3.046875 17.734375 C -4.765625 17.566406 -6.257812 17.128906 -7.53125 16.421875 C -8.800781 15.710938 -9.71875 14.734375 -10.28125 13.484375 C -10.851562 12.242188 -10.929688 10.726562 -10.515625 8.9375 C -10.085938 7.300781 -9.3125 5.90625 -8.1875 4.75 C -7.0625 3.59375 -5.738281 2.617188 -4.21875 1.828125 C -2.707031 1.035156 -1.140625 0.382812 0.484375 -0.125 C 2.117188 -0.644531 3.660156 -1.082031 5.109375 -1.4375 C 7.242188 -1.976562 9.507812 -2.46875 11.90625 -2.90625 C 14.300781 -3.34375 16.585938 -3.648438 18.765625 -3.828125 C 19.335938 -3.847656 19.722656 -4.132812 19.921875 -4.6875 C 20.054688 -5.0625 20.203125 -5.425781 20.359375 -5.78125 C 20.429688 -5.945312 20.492188 -6.101562 20.546875 -6.25 C 20.859375 -7 21.171875 -7.753906 21.484375 -8.515625 C 22.546875 -11.222656 23.6875 -13.945312 24.90625 -16.6875 C 26.125 -19.4375 27.5 -22.070312 29.03125 -24.59375 C 30.570312 -27.125 32.332031 -29.414062 34.3125 -31.46875 C 34.8125 -31.957031 35.34375 -32.425781 35.90625 -32.875 C 36.164062 -33.09375 36.523438 -33.257812 36.984375 -33.375 C 37.453125 -33.488281 37.847656 -33.46875 38.171875 -33.3125 C 38.503906 -33.15625 38.597656 -32.765625 38.453125 -32.140625 C 38.109375 -30.859375 37.8125 -29.554688 37.5625 -28.234375 C 37.320312 -26.921875 37.101562 -25.601562 36.90625 -24.28125 C 36.90625 -24.21875 36.894531 -24.148438 36.875 -24.078125 C 36.414062 -21.085938 36.132812 -18.269531 36.03125 -15.625 C 35.925781 -12.976562 35.882812 -10.144531 35.90625 -7.125 C 35.90625 -6.800781 35.921875 -6.476562 35.953125 -6.15625 C 35.972656 -5.925781 36.085938 -5.800781 36.296875 -5.78125 C 36.648438 -5.757812 37 -5.757812 37.34375 -5.78125 C 37.75 -5.800781 38.15625 -5.800781 38.5625 -5.78125 C 38.738281 -5.757812 38.910156 -5.703125 39.078125 -5.609375 Z M 18.796875 -1.875 C 18.929688 -2.226562 18.941406 -2.445312 18.828125 -2.53125 C 18.722656 -2.613281 18.492188 -2.628906 18.140625 -2.578125 C 16.410156 -2.359375 14.679688 -2.109375 12.953125 -1.828125 C 11.222656 -1.546875 9.515625 -1.203125 7.828125 -0.796875 C 7.578125 -0.734375 7.320312 -0.675781 7.0625 -0.625 C 5.644531 -0.28125 4.125 0.117188 2.5 0.578125 C 0.882812 1.046875 -0.6875 1.640625 -2.21875 2.359375 C -3.75 3.078125 -5.078125 3.972656 -6.203125 5.046875 C -7.328125 6.117188 -8.109375 7.414062 -8.546875 8.9375 C -9.003906 10.820312 -8.898438 12.347656 -8.234375 13.515625 C -7.566406 14.691406 -6.515625 15.535156 -5.078125 16.046875 C -3.648438 16.554688 -2.035156 16.742188 -0.234375 16.609375 C 1.566406 16.484375 3.363281 16.054688 5.15625 15.328125 C 6.945312 14.609375 8.550781 13.609375 9.96875 12.328125 C 11.957031 10.421875 13.644531 8.28125 15.03125 5.90625 C 15.78125 4.664062 16.457031 3.394531 17.0625 2.09375 C 17.664062 0.789062 18.242188 -0.53125 18.796875 -1.875 Z M 35.640625 -27.734375 C 35.640625 -27.765625 35.644531 -27.8125 35.65625 -27.875 C 35.707031 -28.132812 35.773438 -28.5 35.859375 -28.96875 C 35.953125 -29.445312 36.015625 -29.875 36.046875 -30.25 C 36.097656 -30.570312 36.085938 -30.765625 36.015625 -30.828125 C 35.941406 -30.890625 35.765625 -30.757812 35.484375 -30.4375 C 35.328125 -30.238281 35.164062 -30.046875 35 -29.859375 C 34.375 -29.171875 33.769531 -28.460938 33.1875 -27.734375 C 31.875 -26.035156 30.644531 -24.125 29.5 -22 C 28.363281 -19.875 27.304688 -17.671875 26.328125 -15.390625 C 25.347656 -13.109375 24.425781 -10.882812 23.5625 -8.71875 C 23.15625 -7.71875 22.753906 -6.753906 22.359375 -5.828125 C 22.015625 -5.023438 21.882812 -4.546875 21.96875 -4.390625 C 22.050781 -4.242188 22.425781 -4.226562 23.09375 -4.34375 C 23.1875 -4.34375 23.300781 -4.347656 23.4375 -4.359375 C 25.445312 -4.554688 27.441406 -4.773438 29.421875 -5.015625 C 30.285156 -5.117188 31.148438 -5.222656 32.015625 -5.328125 C 32.191406 -5.347656 32.363281 -5.367188 32.53125 -5.390625 C 32.820312 -5.421875 33.125 -5.453125 33.4375 -5.484375 C 33.625 -5.503906 33.757812 -5.5625 33.84375 -5.65625 C 33.9375 -5.757812 33.984375 -5.925781 33.984375 -6.15625 C 33.984375 -6.289062 33.984375 -6.441406 33.984375 -6.609375 C 33.984375 -6.691406 33.984375 -6.773438 33.984375 -6.859375 C 33.972656 -10.546875 34.0625 -14.007812 34.25 -17.25 C 34.4375 -20.488281 34.898438 -23.984375 35.640625 -27.734375 Z M 35.640625 -27.734375 "/></g></g></g><g fill="#008037" fill-opacity="1"><g transform="translate(155.563584, 232.796755)"><g><path d="M 4.484375 -4.484375 L 4.484375 0 L 4.015625 0 L 4.015625 -2.0625 L 1.203125 -2.0625 L 1.203125 0 L 0.734375 0 L 0.734375 -4.484375 L 1.203125 -4.484375 L 1.203125 -2.484375 L 4.015625 -2.484375 L 4.015625 -4.484375 Z M 4.484375 -4.484375 "/></g></g></g><g fill="#008037" fill-opacity="1"><g transform="translate(162.322678, 232.796755)"><g><path d="M 2.6875 0.03125 C 2.25 0.03125 1.847656 -0.0664062 1.484375 -0.265625 C 1.117188 -0.460938 0.832031 -0.734375 0.625 -1.078125 C 0.425781 -1.421875 0.328125 -1.8125 0.328125 -2.25 C 0.328125 -2.675781 0.425781 -3.0625 0.625 -3.40625 C 0.832031 -3.75 1.117188 -4.019531 1.484375 -4.21875 C 1.847656 -4.414062 2.25 -4.515625 2.6875 -4.515625 C 3.132812 -4.515625 3.535156 -4.414062 3.890625 -4.21875 C 4.242188 -4.03125 4.523438 -3.757812 4.734375 -3.40625 C 4.941406 -3.0625 5.046875 -2.675781 5.046875 -2.25 C 5.046875 -1.8125 4.941406 -1.414062 4.734375 -1.0625 C 4.523438 -0.71875 4.242188 -0.445312 3.890625 -0.25 C 3.535156 -0.0625 3.132812 0.03125 2.6875 0.03125 Z M 2.6875 -0.390625 C 3.039062 -0.390625 3.359375 -0.46875 3.640625 -0.625 C 3.929688 -0.78125 4.15625 -1 4.3125 -1.28125 C 4.476562 -1.570312 4.5625 -1.894531 4.5625 -2.25 C 4.5625 -2.59375 4.476562 -2.90625 4.3125 -3.1875 C 4.15625 -3.476562 3.929688 -3.703125 3.640625 -3.859375 C 3.359375 -4.015625 3.039062 -4.09375 2.6875 -4.09375 C 2.332031 -4.09375 2.007812 -4.015625 1.71875 -3.859375 C 1.4375 -3.703125 1.210938 -3.476562 1.046875 -3.1875 C 0.878906 -2.90625 0.796875 -2.59375 0.796875 -2.25 C 0.796875 -1.894531 0.878906 -1.570312 1.046875 -1.28125 C 1.210938 -1 1.4375 -0.78125 1.71875 -0.625 C 2.007812 -0.46875 2.332031 -0.390625 2.6875 -0.390625 Z M 2.6875 -0.390625 "/></g></g></g><g fill="#008037" fill-opacity="1"><g transform="translate(169.248186, 232.796755)"><g><path d="M 5.390625 -4.484375 L 5.390625 0 L 4.9375 0 L 4.9375 -3.59375 L 3.171875 -0.5625 L 2.953125 -0.5625 L 1.1875 -3.5625 L 1.1875 0 L 0.734375 0 L 0.734375 -4.484375 L 1.125 -4.484375 L 3.0625 -1.15625 L 5 -4.484375 Z M 5.390625 -4.484375 "/></g></g></g><g fill="#008037" fill-opacity="1"><g transform="translate(176.916173, 232.796755)"><g><path d="M 3.90625 -0.40625 L 3.90625 0 L 0.734375 0 L 0.734375 -4.484375 L 3.8125 -4.484375 L 3.8125 -4.078125 L 1.203125 -4.078125 L 1.203125 -2.484375 L 3.53125 -2.484375 L 3.53125 -2.078125 L 1.203125 -2.078125 L 1.203125 -0.40625 Z M 3.90625 -0.40625 "/></g></g></g><g fill="#008037" fill-opacity="1"><g transform="translate(182.753571, 232.796755)"><g/></g></g><g fill="#008037" fill-opacity="1"><g transform="translate(185.985899, 232.796755)"><g><path d="M 3.90625 -0.40625 L 3.90625 0 L 0.734375 0 L 0.734375 -4.484375 L 3.8125 -4.484375 L 3.8125 -4.078125 L 1.203125 -4.078125 L 1.203125 -2.484375 L 3.53125 -2.484375 L 3.53125 -2.078125 L 1.203125 -2.078125 L 1.203125 -0.40625 Z M 3.90625 -0.40625 "/></g></g></g><g fill="#008037" fill-opacity="1"><g transform="translate(191.823297, 232.796755)"><g><path d="M 3.546875 0 L 2.09375 -1.96875 L 0.65625 0 L 0.109375 0 L 1.8125 -2.3125 L 0.21875 -4.484375 L 0.765625 -4.484375 L 2.109375 -2.65625 L 3.453125 -4.484375 L 3.96875 -4.484375 L 2.390625 -2.3125 L 4.09375 0 Z M 3.546875 0 "/></g></g></g><g fill="#008037" fill-opacity="1"><g transform="translate(197.577484, 232.796755)"><g><path d="M 2.40625 -4.484375 C 2.976562 -4.484375 3.425781 -4.347656 3.75 -4.078125 C 4.070312 -3.804688 4.234375 -3.429688 4.234375 -2.953125 C 4.234375 -2.472656 4.070312 -2.097656 3.75 -1.828125 C 3.425781 -1.554688 2.976562 -1.421875 2.40625 -1.421875 L 1.203125 -1.421875 L 1.203125 0 L 0.734375 0 L 0.734375 -4.484375 Z M 2.390625 -1.828125 C 2.835938 -1.828125 3.175781 -1.925781 3.40625 -2.125 C 3.644531 -2.320312 3.765625 -2.597656 3.765625 -2.953125 C 3.765625 -3.304688 3.644531 -3.582031 3.40625 -3.78125 C 3.175781 -3.976562 2.835938 -4.078125 2.390625 -4.078125 L 1.203125 -4.078125 L 1.203125 -1.828125 Z M 2.390625 -1.828125 "/></g></g></g><g fill="#008037" fill-opacity="1"><g transform="translate(203.728511, 232.796755)"><g><path d="M 3.90625 -0.40625 L 3.90625 0 L 0.734375 0 L 0.734375 -4.484375 L 3.8125 -4.484375 L 3.8125 -4.078125 L 1.203125 -4.078125 L 1.203125 -2.484375 L 3.53125 -2.484375 L 3.53125 -2.078125 L 1.203125 -2.078125 L 1.203125 -0.40625 Z M 3.90625 -0.40625 "/></g></g></g><g fill="#008037" fill-opacity="1"><g transform="translate(209.565909, 232.796755)"><g><path d="M 3.796875 0 L 2.765625 -1.4375 C 2.648438 -1.425781 2.53125 -1.421875 2.40625 -1.421875 L 1.203125 -1.421875 L 1.203125 0 L 0.734375 0 L 0.734375 -4.484375 L 2.40625 -4.484375 C 2.976562 -4.484375 3.425781 -4.347656 3.75 -4.078125 C 4.070312 -3.804688 4.234375 -3.429688 4.234375 -2.953125 C 4.234375 -2.597656 4.144531 -2.300781 3.96875 -2.0625 C 3.789062 -1.820312 3.539062 -1.644531 3.21875 -1.53125 L 4.3125 0 Z M 2.390625 -1.828125 C 2.835938 -1.828125 3.175781 -1.925781 3.40625 -2.125 C 3.644531 -2.320312 3.765625 -2.597656 3.765625 -2.953125 C 3.765625 -3.304688 3.644531 -3.582031 3.40625 -3.78125 C 3.175781 -3.976562 2.835938 -4.078125 2.390625 -4.078125 L 1.203125 -4.078125 L 1.203125 -1.828125 Z M 2.390625 -1.828125 "/></g></g></g><g fill="#008037" fill-opacity="1"><g transform="translate(215.748938, 232.796755)"><g><path d="M 1.609375 -4.078125 L 0.03125 -4.078125 L 0.03125 -4.484375 L 3.65625 -4.484375 L 3.65625 -4.078125 L 2.078125 -4.078125 L 2.078125 0 L 1.609375 0 Z M 1.609375 -4.078125 "/></g></g></g><g clip-path="url(#7600a00536)"><path fill="#008037" d="M 251.550781 186.957031 C 251.332031 186.785156 251.472656 186.898438 251.527344 186.9375 C 251.570312 186.964844 251.613281 186.988281 251.65625 187.011719 C 251.753906 187.066406 251.855469 187.113281 251.953125 187.160156 C 251.972656 187.167969 251.988281 187.175781 252.007812 187.183594 C 252.066406 187.203125 252.121094 187.222656 252.175781 187.242188 C 252.304688 187.289062 252.433594 187.324219 252.566406 187.351562 C 252.613281 187.359375 252.703125 187.367188 252.722656 187.367188 C 252.769531 187.339844 252.816406 187.316406 252.859375 187.285156 C 252.882812 187.269531 252.90625 187.253906 252.925781 187.242188 C 252.933594 187.230469 252.941406 187.222656 252.949219 187.214844 C 252.949219 187.195312 252.949219 187.175781 252.945312 187.160156 C 252.941406 187.140625 252.929688 187.070312 252.921875 187.019531 C 252.917969 187.003906 252.914062 186.980469 252.921875 186.96875 C 252.921875 186.96875 252.921875 186.964844 252.921875 186.964844 C 252.914062 186.933594 252.910156 186.902344 252.902344 186.871094 C 252.886719 186.808594 252.867188 186.753906 252.851562 186.691406 C 252.847656 186.6875 252.847656 186.6875 252.84375 186.683594 C 252.828125 186.652344 252.8125 186.625 252.800781 186.59375 C 252.765625 186.527344 252.730469 186.457031 252.683594 186.394531 C 252.648438 186.335938 252.609375 186.28125 252.570312 186.226562 C 252.566406 186.226562 252.566406 186.226562 252.566406 186.226562 C 252.539062 186.191406 252.511719 186.152344 252.480469 186.121094 C 252.410156 186.035156 252.332031 185.957031 252.257812 185.875 C 252.191406 185.839844 252.136719 185.792969 252.085938 185.738281 L 221.464844 167.679688 L 221.464844 149.773438 L 204.527344 149.773438 L 204.527344 157.6875 L 187.765625 147.804688 L 121.835938 186.683594 C 121.835938 186.6875 121.832031 186.6875 121.832031 186.691406 C 121.828125 186.695312 121.828125 186.699219 121.828125 186.703125 C 121.828125 186.707031 121.828125 186.707031 121.824219 186.710938 C 121.792969 186.796875 121.761719 186.886719 121.738281 186.980469 C 121.722656 187.027344 121.714844 187.074219 121.703125 187.117188 C 121.753906 187.160156 121.796875 187.210938 121.828125 187.269531 C 121.859375 187.324219 121.890625 187.378906 121.917969 187.433594 C 121.933594 187.441406 121.945312 187.445312 121.960938 187.453125 C 122.03125 187.472656 122.101562 187.492188 122.171875 187.507812 L 122.875 187.507812 C 122.964844 187.5 123.050781 187.492188 123.136719 187.480469 C 123.15625 187.480469 123.175781 187.476562 123.195312 187.472656 L 123.214844 187.464844 C 123.210938 187.464844 123.203125 187.464844 123.203125 187.464844 C 123.207031 187.464844 123.210938 187.464844 123.214844 187.464844 L 187.765625 149.398438 L 204.527344 159.28125 L 205.894531 160.085938 L 205.894531 151.144531 L 220.097656 151.144531 L 220.097656 168.464844 L 221.464844 169.269531 L 251.160156 186.777344 C 251.308594 186.792969 251.425781 186.863281 251.550781 186.957031 Z M 251.550781 186.957031 " fill-opacity="1" fill-rule="nonzero"/></g><g fill="#000000" fill-opacity="1"><g transform="translate(179.14555, 207.577354)"><g><path d="M 15.40625 -9.96875 C 16.03125 -10.113281 16.832031 -10.539062 17.8125 -11.25 C 18.800781 -11.96875 19.25 -11.984375 19.15625 -11.296875 C 19.0625 -10.609375 18.523438 -10.035156 17.546875 -9.578125 C 16.566406 -9.117188 15.664062 -8.789062 14.84375 -8.59375 C 14.632812 -8.519531 14.421875 -8.398438 14.203125 -8.234375 C 13.992188 -8.078125 13.863281 -7.898438 13.8125 -7.703125 C 13.664062 -6.835938 13.367188 -6.03125 12.921875 -5.28125 C 11.765625 -3.476562 10.117188 -2.765625 7.984375 -3.140625 C 7.140625 -3.359375 6.597656 -3.769531 6.359375 -4.375 C 6.128906 -4.976562 6.25 -5.65625 6.71875 -6.40625 C 7.382812 -7.269531 8.203125 -7.910156 9.171875 -8.328125 C 9.535156 -8.503906 9.867188 -8.628906 10.171875 -8.703125 C 10.316406 -8.773438 10.488281 -8.835938 10.6875 -8.890625 C 11.082031 -9.109375 11.289062 -9.519531 11.3125 -10.125 C 11.34375 -10.738281 11.203125 -11.347656 10.890625 -11.953125 C 10.585938 -12.554688 10.15625 -12.96875 9.59375 -13.1875 C 9.039062 -13.414062 8.378906 -13.21875 7.609375 -12.59375 C 6.867188 -11.90625 6.3125 -11.101562 5.9375 -10.1875 C 5.039062 -8.351562 4.425781 -6.421875 4.09375 -4.390625 C 3.5 -0.828125 3.085938 2.734375 2.859375 6.296875 C 2.765625 7.960938 2.601562 9.609375 2.375 11.234375 C 2.28125 11.929688 2.203125 12.632812 2.140625 13.34375 C 2.109375 13.570312 2.050781 13.8125 1.96875 14.0625 C 1.84375 14.5 1.507812 14.6875 0.96875 14.625 C 0.414062 14.59375 0.117188 14.34375 0.078125 13.875 C 0.0546875 13.375 0.0546875 12.867188 0.078125 12.359375 C 0.078125 12.234375 0.078125 12.128906 0.078125 12.046875 C 0.117188 11.429688 0.15625 10.804688 0.1875 10.171875 C 0.207031 9.046875 0.234375 7.929688 0.265625 6.828125 C 0.328125 2.316406 0.300781 -2.226562 0.1875 -6.8125 C 0.15625 -8.519531 0.117188 -10.210938 0.078125 -11.890625 C 0.078125 -12.066406 0.078125 -12.242188 0.078125 -12.421875 C 0.0234375 -13.015625 0.0546875 -13.59375 0.171875 -14.15625 C 0.296875 -14.726562 0.671875 -15.050781 1.296875 -15.125 C 1.941406 -15.195312 2.335938 -14.898438 2.484375 -14.234375 C 2.484375 -14.179688 2.484375 -14.125 2.484375 -14.0625 C 2.703125 -12.789062 2.898438 -11.113281 3.078125 -9.03125 C 3.546875 -10.425781 4.140625 -11.546875 4.859375 -12.390625 C 5.578125 -13.242188 6.421875 -13.875 7.390625 -14.28125 C 8.203125 -14.644531 9.035156 -14.789062 9.890625 -14.71875 C 10.753906 -14.644531 11.535156 -14.289062 12.234375 -13.65625 C 12.929688 -13.03125 13.410156 -12.097656 13.671875 -10.859375 C 13.796875 -10.316406 13.960938 -9.992188 14.171875 -9.890625 C 14.378906 -9.796875 14.789062 -9.820312 15.40625 -9.96875 Z M 9.359375 -4.4375 C 9.898438 -4.726562 10.316406 -5.117188 10.609375 -5.609375 C 10.910156 -6.109375 11.066406 -6.539062 11.078125 -6.90625 C 11.085938 -7.28125 10.929688 -7.421875 10.609375 -7.328125 C 9.773438 -7.003906 9.203125 -6.582031 8.890625 -6.0625 C 8.578125 -5.539062 8.472656 -5.09375 8.578125 -4.71875 C 8.679688 -4.351562 8.941406 -4.257812 9.359375 -4.4375 Z M 9.359375 -4.4375 "/></g></g></g><g fill="#000000" fill-opacity="1"><g transform="translate(197.112658, 207.577354)"><g><path d="M 16.75 -7.796875 C 17.789062 -9.441406 18.410156 -10.488281 18.609375 -10.9375 C 18.804688 -11.382812 18.960938 -11.363281 19.078125 -10.875 C 19.191406 -10.382812 18.851562 -9.285156 18.0625 -7.578125 C 17.28125 -5.878906 16.304688 -4.566406 15.140625 -3.640625 C 13.984375 -2.710938 12.898438 -2.367188 11.890625 -2.609375 C 10.890625 -2.859375 10.171875 -3.554688 9.734375 -4.703125 C 9.304688 -5.859375 9.179688 -7.316406 9.359375 -9.078125 C 9.359375 -9.097656 9.375 -9.171875 9.40625 -9.296875 C 9.425781 -9.597656 9.472656 -10.035156 9.546875 -10.609375 C 9.617188 -11.191406 9.671875 -11.789062 9.703125 -12.40625 C 9.742188 -13.03125 9.726562 -13.546875 9.65625 -13.953125 C 9.582031 -14.359375 9.394531 -14.5 9.09375 -14.375 C 8.375 -13.988281 7.671875 -13.222656 6.984375 -12.078125 C 6.304688 -10.941406 5.691406 -9.75 5.140625 -8.5 C 4.585938 -7.25 4.195312 -6.238281 3.96875 -5.46875 C 3.875 -5.226562 3.785156 -4.972656 3.703125 -4.703125 C 3.585938 -4.347656 3.453125 -3.992188 3.296875 -3.640625 C 2.910156 -2.628906 2.226562 -2.238281 1.25 -2.46875 C 0.71875 -2.59375 0.398438 -2.925781 0.296875 -3.46875 C 0.273438 -3.882812 0.265625 -4.28125 0.265625 -4.65625 C 0.265625 -4.90625 0.25 -5.128906 0.21875 -5.328125 C 0.164062 -8.328125 0.09375 -11.34375 0 -14.375 C 0.03125 -14.726562 0.1875 -14.972656 0.46875 -15.109375 C 0.75 -15.242188 1.085938 -15.3125 1.484375 -15.3125 C 1.773438 -15.3125 2.050781 -15.226562 2.3125 -15.0625 C 2.582031 -14.90625 2.75 -14.570312 2.8125 -14.0625 C 2.84375 -13.882812 2.859375 -13.707031 2.859375 -13.53125 C 2.878906 -13.4375 2.890625 -13.347656 2.890625 -13.265625 C 2.953125 -12.847656 2.984375 -12.488281 2.984375 -12.1875 C 2.984375 -11.75 3.007812 -11.445312 3.0625 -11.28125 C 3.125 -11.125 3.253906 -11.128906 3.453125 -11.296875 C 3.648438 -11.472656 3.972656 -11.894531 4.421875 -12.5625 C 5.191406 -13.75 6.140625 -14.753906 7.265625 -15.578125 C 8.304688 -16.316406 9.445312 -16.628906 10.6875 -16.515625 C 11.757812 -16.398438 12.476562 -15.835938 12.84375 -14.828125 C 12.988281 -14.316406 13.0625 -13.800781 13.0625 -13.28125 C 13.0625 -12.757812 13.03125 -12.234375 12.96875 -11.703125 C 12.9375 -11.160156 12.894531 -10.609375 12.84375 -10.046875 C 12.800781 -9.867188 12.765625 -9.691406 12.734375 -9.515625 C 12.566406 -7.585938 12.628906 -6.296875 12.921875 -5.640625 C 13.222656 -4.984375 13.675781 -4.765625 14.28125 -4.984375 C 14.882812 -5.210938 15.707031 -6.148438 16.75 -7.796875 Z M 16.75 -7.796875 "/></g></g></g><g fill="#000000" fill-opacity="1"><g transform="translate(214.937974, 207.577354)"><g><path d="M 22.921875 -10.40625 C 22.546875 -9.269531 21.804688 -7.96875 20.703125 -6.5 C 19.609375 -5.039062 18.238281 -4.101562 16.59375 -3.6875 C 14.945312 -3.269531 13.519531 -3.328125 12.3125 -3.859375 C 11.113281 -4.390625 10.453125 -5.816406 10.328125 -8.140625 C 8.960938 -5.492188 7.660156 -3.796875 6.421875 -3.046875 C 5.191406 -2.304688 3.910156 -2.023438 2.578125 -2.203125 C 1.054688 -2.453125 0.03125 -3.039062 -0.5 -3.96875 C -1.03125 -4.90625 -1.207031 -5.984375 -1.03125 -7.203125 C -0.851562 -8.421875 -0.484375 -9.59375 0.078125 -10.71875 C 0.523438 -11.550781 1.144531 -12.328125 1.9375 -13.046875 C 2.726562 -13.765625 3.554688 -14.320312 4.421875 -14.71875 C 5.484375 -15.257812 6.550781 -15.515625 7.625 -15.484375 C 8.707031 -15.460938 9.863281 -15.109375 11.09375 -14.421875 C 11.125 -14.390625 11.140625 -14.414062 11.140625 -14.5 C 11.140625 -14.625 11.171875 -14.773438 11.234375 -14.953125 C 11.296875 -15.140625 11.398438 -15.285156 11.546875 -15.390625 C 11.953125 -15.691406 12.429688 -15.84375 12.984375 -15.84375 C 13.535156 -15.84375 13.960938 -15.566406 14.265625 -15.015625 C 14.316406 -14.296875 14.238281 -13.382812 14.03125 -12.28125 C 13.59375 -9.84375 13.59375 -8.085938 14.03125 -7.015625 C 14.476562 -5.953125 15.265625 -5.457031 16.390625 -5.53125 C 17.523438 -5.613281 18.988281 -6.726562 20.78125 -8.875 C 22.582031 -11.03125 23.296875 -11.539062 22.921875 -10.40625 Z M 2.984375 -4.703125 C 3.597656 -4.253906 4.304688 -4.3125 5.109375 -4.875 C 5.910156 -5.445312 6.679688 -6.253906 7.421875 -7.296875 C 8.171875 -8.335938 8.796875 -9.375 9.296875 -10.40625 C 9.804688 -11.445312 10.085938 -12.21875 10.140625 -12.71875 C 8.628906 -13.53125 7.332031 -13.664062 6.25 -13.125 C 5.175781 -12.59375 4.316406 -11.722656 3.671875 -10.515625 C 3.035156 -9.304688 2.65625 -8.128906 2.53125 -6.984375 C 2.40625 -5.847656 2.554688 -5.085938 2.984375 -4.703125 Z M 2.984375 -4.703125 "/></g></g></g></svg>